HIERARCHY
ROOT Hips
{
	OFFSET 0.00000 0.00000 0.00000
	CHANNELS 6 Xposition Yposition Zposition Zrotation Yrotation Xrotation 
	JOINT LHipJoint
	{
		OFFSET 0 0 0
		CHANNELS 3 Zrotation Yrotation Xrotation
		JOINT LeftHip
		{
			OFFSET 1.86795 -1.59681 0.65681
			CHANNELS 3 Zrotation Yrotation Xrotation
			JOINT LeftKnee
			{
				OFFSET 2.30491 -6.33268 0.00000
				CHANNELS 3 Zrotation Yrotation Xrotation
				JOINT LeftAnkle
				{
					OFFSET 2.46780 -6.78022 0.00000
					CHANNELS 3 Zrotation Yrotation Xrotation
					JOINT LeftToe
					{
						OFFSET 0.07897 -0.21698 1.59652
						CHANNELS 3 Zrotation Yrotation Xrotation
						End Site
						{
							OFFSET 0.00000 -0.00000 0.82310
						}
					}
				}
			}
		}
	}
	JOINT RHipJoint
	{
		OFFSET 0 0 0
		CHANNELS 3 Zrotation Yrotation Xrotation
		JOINT RightHip
		{
			OFFSET -1.93650 -1.59681 0.65681
			CHANNELS 3 Zrotation Yrotation Xrotation
			JOINT RightKnee
			{
				OFFSET -2.29410 -6.30299 0.00000
				CHANNELS 3 Zrotation Yrotation Xrotation
				JOINT RightAnkle
				{
					OFFSET -2.48738 -6.83403 0.00000
					CHANNELS 3 Zrotation Yrotation Xrotation
					JOINT RightToe
					{
						OFFSET -0.08699 -0.23899 1.89395
						CHANNELS 3 Zrotation Yrotation Xrotation
						End Site
						{
							OFFSET -0.00000 -0.00000 0.96904
						}
					}
				}
			}
		}
	}
	JOINT lowerback
	{
		OFFSET 0 0 0
		CHANNELS 3 Zrotation Yrotation Xrotation
		JOINT Chest
		{
			OFFSET 0.03629 1.99740 -0.07548
			CHANNELS 3 Zrotation Yrotation Xrotation
			JOINT Chest2
			{
				OFFSET 0.03970 1.94298 0.17218
				CHANNELS 3 Zrotation Yrotation Xrotation
				JOINT lowerneck
				{
					OFFSET 0 0 0
					CHANNELS 3 Zrotation Yrotation Xrotation
					JOINT Neck
					{
						OFFSET -0.05054 1.79469 0.04241
						CHANNELS 3 Zrotation Yrotation Xrotation
						JOINT Head
						{
							OFFSET 0.05195 1.78475 -0.22133
							CHANNELS 3 Zrotation Yrotation Xrotation
							End Site
							{
								OFFSET 0.02420 1.80711 -0.07950
							}
						}
					}
				}
				JOINT LeftCollar
				{
					OFFSET 0 0 0
					CHANNELS 3 Zrotation Yrotation Xrotation
					JOINT LeftShoulder
					{
						OFFSET 2.92134 1.19850 0.36056
CHANNELS 3 Zrotation Xrotation Yrotation
						JOINT LeftElbow
						{
OFFSET 0 -4.841370 0.000000
CHANNELS 3 Zrotation Xrotation Yrotation
							JOINT LeftWrist
							{
OFFSET 0 -3.245200 -0.000000
CHANNELS 3 Zrotation Xrotation Yrotation
								JOINT lhand
								{
									OFFSET 0 0 0
CHANNELS 3 Zrotation Xrotation Yrotation
									JOINT LFingers
									{
OFFSET 0 -0.521220 0.000000
CHANNELS 3 Zrotation Xrotation Yrotation
										End Site
										{
OFFSET 0 -0.420220 0.000000
										}
									}
								}
								JOINT LThumb
								{
OFFSET 0 0.000000 0.000000
CHANNELS 3 Zrotation Xrotation Yrotation
									End Site
									{
OFFSET 0 -0.426640 0.426640
									}
								}
							}
						}
					}
				}
				JOINT RightCollar
				{
					OFFSET 0 0 0
					CHANNELS 3 Zrotation Yrotation Xrotation
					JOINT RightShoulder
					{
						OFFSET -2.84327 1.20795 0.50191
CHANNELS 3 Zrotation Xrotation Yrotation
						JOINT RightElbow
						{
OFFSET 0 -4.722840 0.000000
CHANNELS 3 Zrotation Xrotation Yrotation
							JOINT RightWrist
							{
OFFSET 0 -3.234590 0.000000
CHANNELS 3 Zrotation Xrotation Yrotation
								JOINT rhand
								{
									OFFSET 0 0 0
CHANNELS 3 Zrotation Xrotation Yrotation
									JOINT RFingers
									{
OFFSET 0 -0.307420 0.000000
CHANNELS 3 Zrotation Xrotation Yrotation
										End Site
										{
OFFSET 0 -0.247850 0.000000
										}
									}
								}
								JOINT RThumb
								{
OFFSET 0 0.000000 0.000000
CHANNELS 3 Zrotation Xrotation Yrotation
									End Site
									{
OFFSET 0 -0.251630 0.251630
									}
								}
							}
						}
					}
				}
			}
		}
	}
}
MOTION
Frames: 10
Frame Time: 0.008333333333333333
21.355200 15.478900 -26.713800 2.593900 -29.361200 13.875100 0.000000 0.000000 0.000000 -13.808600 -16.197100 -35.083700 5.125300 13.523600 41.361300 0.946200 6.174700 -21.606600 1.465200 -7.649700 -21.655100 0.000000 0.000000 0.000000 10.058400 23.277900 -39.749300 -5.836300 -14.267800 44.321200 0.987200 -19.392500 -16.791100 -0.009600 0.634100 -1.742500 1.967900 -0.712700 13.343300 1.027200 -0.679100 3.715300 0.073000 -0.363100 -3.579600 -2.334200 11.288200 -10.840100 -7.668400 14.308600 -20.525500 -2.273900 7.480200 -4.635400 -0.000000 0.000000 0.000000 -1.172800 -9.253100 -40.787600 26.392300 -37.593500 9.125900 -3.333500 26.437500 -41.641300 0.000000 0.000000 0.000000 -7.125000 0.000000 0.000000 -50.536700 64.556600 27.060900 -0.000000 0.000000 0.000000 -6.690600 -17.634000 51.632100 -18.568300 -28.878700 -4.820600 -18.628000 -17.447500 -22.879100 0.000000 0.000000 0.000000 7.125000 0.000000 -0.000000 6.475000 6.104400 5.787700
21.368248 15.464495 -26.761162 2.333630 -29.127233 13.825908 0.000000 0.000000 0.000000 -13.450085 -16.164951 -35.353483 5.221770 13.629263 41.772314 0.960670 5.931506 -21.572265 1.349704 -7.354510 -20.770141 0.000000 0.000000 0.000000 10.338495 23.382425 -39.701250 -5.842447 -14.273871 44.345925 0.999270 -19.492301 -16.856747 -0.006455 0.517666 -1.422550 2.229992 -0.620196 13.731307 1.080790 -0.525324 4.168494 -0.042774 -0.287138 -3.314045 -2.762981 11.428291 -11.245704 -7.118374 14.625357 -20.624139 -2.014084 7.646371 -4.681747 0.000000 0.000000 0.000000 -1.253943 -9.755403 -41.094481 27.719647 -38.856814 9.947337 -2.587837 26.325646 -40.180896 0.000000 0.000000 0.000000 -7.125000 0.000000 0.000000 -47.631400 63.789249 24.332363 0.000000 0.000000 0.000000 -6.705621 -17.067519 51.915703 -20.011469 -30.656121 -5.537224 -19.074194 -17.795823 -23.291754 0.000000 0.000000 0.000000 7.125000 0.000000 0.000000 6.229407 5.612507 5.624372
21.383749 15.452964 -26.801818 2.673161 -28.962273 13.694493 0.000000 0.000000 0.000000 -13.696306 -16.172807 -35.648083 5.236181 13.644977 41.833507 1.000356 5.402155 -21.582754 1.268167 -7.137738 -20.124058 0.000000 0.000000 0.000000 9.883849 23.463343 -40.024768 -5.910960 -14.341460 44.623162 1.010738 -19.618802 -17.006474 -0.008822 0.605040 -1.662695 2.088519 -0.628645 13.843558 0.753918 -0.566351 4.213940 -0.297074 -0.305959 -3.329983 -2.896934 10.503783 -9.414376 -5.949766 13.414113 -22.701868 -1.595627 7.066846 -5.210564 0.000000 0.000000 0.000000 -1.582535 -8.991940 -39.628535 29.316774 -40.300534 10.965039 -2.315122 28.228303 -39.219965 0.000000 0.000000 0.000000 -7.125000 0.000000 0.000000 -46.002956 63.196314 22.693500 0.000000 0.000000 0.000000 -6.161967 -16.356104 52.796608 -20.718546 -31.498373 -5.902243 -17.989407 -18.784318 -23.455809 0.000000 0.000000 0.000000 7.125000 0.000000 0.000000 6.916215 5.608282 6.254207
21.395818 15.430440 -26.853546 1.720300 -28.353939 14.080732 0.000000 0.000000 0.000000 -12.514094 -16.299502 -36.386556 5.428564 13.850723 42.642886 1.056322 4.713739 -21.656627 1.234488 -7.045913 -19.851495 0.000000 0.000000 0.000000 10.839140 23.547452 -40.028712 -5.907106 -14.337731 44.607875 1.108127 -20.150752 -16.822079 -0.003513 0.372328 -1.023150 3.203433 -0.856311 13.969554 0.793009 -0.720829 4.543017 -0.860334 -0.378667 -3.065270 -3.216844 8.257415 -10.447680 -3.588278 10.708588 -22.732087 -0.738862 5.610582 -5.243101 0.000000 0.000000 0.000000 -2.502594 -9.309186 -37.217525 30.776151 -41.548929 11.921329 -5.243331 30.913990 -39.065454 0.000000 0.000000 0.000000 -7.125000 0.000000 0.000000 -48.490371 62.310106 23.225546 0.000000 0.000000 0.000000 -5.776963 -16.856514 53.548548 -20.517075 -31.260227 -5.797334 -17.762584 -18.894000 -24.006406 0.000000 0.000000 0.000000 7.125000 0.000000 0.000000 7.099578 5.076976 6.492295
21.404653 15.417760 -26.899170 2.829939 -28.020159 13.773228 0.000000 0.000000 0.000000 -13.435684 -16.796343 -36.641452 5.365776 13.784236 42.379942 1.019895 4.630363 -21.282199 1.282949 -7.177346 -20.242008 0.000000 0.000000 0.000000 9.574240 23.239682 -40.934739 -6.094168 -14.518962 45.358426 1.104412 -20.180467 -16.973749 -0.001461 0.240187 -0.659908 2.118915 -0.788976 14.008661 0.734129 -0.773617 4.419123 -0.300461 -0.406549 -3.208685 -6.268416 5.073783 -10.178932 1.954345 7.374579 -22.874616 1.541143 3.903728 -5.645776 0.000000 0.000000 0.000000 -3.618693 -8.873738 -36.561679 33.345372 -43.593582 13.659730 -6.827997 34.208172 -38.772015 0.000000 0.000000 0.000000 -7.125000 0.000000 0.000000 -49.536605 61.696087 23.154630 0.000000 0.000000 0.000000 -6.577168 -16.176497 54.453230 -20.248536 -30.940601 -5.658575 -19.956630 -19.561745 -24.652740 0.000000 0.000000 0.000000 7.125000 0.000000 0.000000 5.803837 4.069153 5.406059
21.408153 15.401211 -26.940628 2.258984 -27.960549 13.598443 0.000000 0.000000 0.000000 -12.840141 -16.563688 -36.634137 5.458682 13.882458 42.768472 1.040936 4.407325 -21.339643 1.150229 -6.807206 -19.146409 0.000000 0.000000 0.000000 10.346420 23.373543 -40.529753 -6.092488 -14.517314 45.351627 1.100938 -20.248654 -17.226765 -0.001316 -0.227816 0.626044 1.966338 -1.321303 14.370541 0.056059 -1.518716 4.692352 -0.795599 -0.770944 -3.146648 -7.280660 1.886308 -8.617490 9.753181 4.285184 -23.995862 4.331834 1.958071 -6.204686 0.000000 0.000000 0.000000 -2.261611 -9.401181 -34.752550 35.852352 -45.410756 15.417389 -6.668232 35.155067 -39.556311 0.000000 0.000000 0.000000 -7.125000 0.000000 0.000000 -50.460174 62.265703 24.383260 0.000000 0.000000 0.000000 -4.965804 -16.141113 57.219942 -20.409606 -31.132640 -5.741600 -18.479277 -19.248085 -22.672287 0.000000 0.000000 0.000000 7.125000 0.000000 0.000000 6.552508 6.338845 5.828123
21.401221 15.407577 -26.989038 2.423038 -27.967336 13.418276 0.000000 0.000000 0.000000 -12.833379 -16.895010 -36.463942 5.415972 13.837441 42.590115 1.029219 4.504071 -21.291182 1.213582 -6.988048 -19.680109 0.000000 0.000000 0.000000 10.323960 23.204898 -40.541135 -6.062043 -14.488162 45.230141 1.071302 -19.998198 -17.025769 -0.000448 -0.044860 0.123246 1.311029 -1.299775 14.383485 0.022976 -1.584149 4.787662 -0.450616 -0.804035 -3.040210 -11.208235 -2.639063 -6.053642 17.579543 -0.711715 -25.247096 7.918848 -0.788577 -6.310471 0.000000 0.000000 0.000000 -2.613944 -9.947462 -35.045046 37.871758 -46.756404 16.872335 -4.470785 36.465578 -39.613760 0.000000 0.000000 0.000000 -7.125000 0.000000 0.000000 -48.548541 62.888513 23.914869 0.000000 0.000000 0.000000 -5.901305 -15.177064 58.251691 -20.886832 -31.695943 -5.990331 -19.886028 -20.207732 -24.019904 0.000000 0.000000 0.000000 7.125000 0.000000 0.000000 5.788873 4.733879 5.319381
21.404227 15.402119 -27.029191 2.229265 -27.856722 13.565385 0.000000 0.000000 0.000000 -12.421390 -17.289851 -36.657395 5.450228 13.873483 42.733094 1.002007 5.003913 -21.347534 1.293314 -7.205513 -20.325729 0.000000 0.000000 0.000000 10.520289 23.232247 -40.641622 -6.024308 -14.451862 45.079357 1.093595 -20.106345 -16.948281 -0.002618 0.301290 -0.827802 1.153903 -1.346476 14.489060 0.007867 -1.665195 4.741655 -0.361025 -0.844520 -3.143143 -12.418705 -5.624569 -3.599541 21.322035 -4.496193 -25.907366 9.583549 -2.948747 -6.087354 0.000000 0.000000 0.000000 -2.648018 -9.641065 -35.339759 40.750367 -48.507979 18.999507 -4.629065 35.869427 -39.588209 0.000000 0.000000 0.000000 -7.125000 0.000000 0.000000 -48.656149 62.829743 23.912780 0.000000 0.000000 0.000000 -5.655241 -14.886872 58.010652 -20.418563 -31.143336 -5.746272 -20.408966 -19.928251 -22.938966 0.000000 0.000000 0.000000 7.125000 0.000000 0.000000 5.367925 5.767621 4.822964
21.414900 15.397261 -27.049884 2.224247 -27.746662 13.531156 0.000000 0.000000 0.000000 -12.361933 -17.412567 -36.811550 5.490995 13.916273 42.902872 1.001352 4.899722 -21.277735 1.266940 -7.134371 -20.114169 0.000000 0.000000 0.000000 10.531963 23.129328 -40.720212 -6.037503 -14.464564 45.132004 1.052978 -19.985125 -17.298498 -0.002469 -0.317045 0.871005 1.179917 -1.490629 14.446459 -0.049608 -1.855589 4.864773 -0.406604 -0.937794 -2.996573 -13.320970 -6.493442 -2.661200 22.490846 -5.613597 -26.533997 10.242662 -3.570265 -6.128099 0.000000 0.000000 0.000000 -2.500983 -9.950192 -35.752865 42.215809 -49.329310 20.104090 -5.265829 36.051163 -38.857765 0.000000 0.000000 0.000000 -7.125000 0.000000 0.000000 -48.231651 62.161265 22.902821 0.000000 0.000000 0.000000 -5.434406 -14.905707 57.741029 -20.303463 -31.006137 -5.686828 -21.202834 -19.846808 -22.859554 0.000000 0.000000 0.000000 7.125000 0.000000 0.000000 4.865162 5.721666 4.372059
21.424076 15.379024 -27.078529 2.272840 -27.928845 13.554728 0.000000 0.000000 0.000000 -12.327054 -17.288022 -37.168076 5.556725 13.984561 43.175549 1.008376 4.869486 -21.323075 1.200531 -6.951768 -19.572501 0.000000 0.000000 0.000000 10.381799 23.264482 -41.120010 -6.105679 -14.529979 45.404507 0.990678 -19.638030 -17.390478 -0.006202 -0.506980 1.392992 1.071875 -1.449946 14.498894 -0.124067 -1.820431 4.897586 -0.428612 -0.920673 -2.988879 -13.147296 -6.314483 -2.589388 21.477808 -5.557088 -26.309254 9.825481 -3.468543 -6.157272 0.000000 0.000000 0.000000 -2.162768 -10.699164 -36.523934 42.536544 -49.502878 20.347655 -6.485694 36.332730 -39.209981 0.000000 0.000000 0.000000 -7.125000 0.000000 0.000000 -49.818175 62.081759 23.772538 0.000000 0.000000 0.000000 -5.119153 -14.574148 56.231832 -20.427530 -31.153927 -5.750838 -19.378581 -20.026594 -22.320995 0.000000 0.000000 0.000000 7.125000 0.000000 0.000000 5.961644 6.566683 5.270195
